<svg
  xmlns="http://www.w3.org/2000/svg"
  width="22"
  height="22"
  viewBox="0 0 22 22"
  fill="none"
>
  <path
    fillRule="evenodd"
    clipRule="evenodd"
    d="M2.70186 11.0001C2.70186 6.41711 6.41711 2.70186 11.0001 2.70186C15.5831 2.70186 19.2984 6.41711 19.2984 11.0001C19.2984 15.5831 15.5831 19.2984 11.0001 19.2984C6.41711 19.2984 2.70186 15.5831 2.70186 11.0001ZM11.0001 0.901855C5.423 0.901855 0.901855 5.423 0.901855 11.0001C0.901855 16.5772 5.423 21.0984 11.0001 21.0984C16.5772 21.0984 21.0984 16.5772 21.0984 11.0001C21.0984 5.423 16.5772 0.901855 11.0001 0.901855ZM13.7071 8.29289C14.0976 8.68342 14.0976 9.31658 13.7071 9.70711L12.4142 11L13.7071 12.2929C14.0976 12.6834 14.0976 13.3166 13.7071 13.7071C13.3166 14.0976 12.6834 14.0976 12.2929 13.7071L11 12.4142L9.70711 13.7071C9.31658 14.0976 8.68342 14.0976 8.29289 13.7071C7.90237 13.3166 7.90237 12.6834 8.29289 12.2929L9.58579 11L8.29289 9.70711C7.90237 9.31658 7.90237 8.68342 8.29289 8.29289C8.68342 7.90237 9.31658 7.90237 9.70711 8.29289L11 9.58579L12.2929 8.29289C12.6834 7.90237 13.3166 7.90237 13.7071 8.29289Z"
    fill="currentColor"
  />
</svg>
